<svg width="18" height="18" viewBox="0 0 18 18" fill="none" xmlns="http://www.w3.org/2000/svg">
<path d="M7.87211 14.5383C9.35126 14.538 10.7878 14.0428 11.9529 13.1316L15.0271 16.2058C15.3525 16.5312 15.8801 16.5312 16.2054 16.2058C16.5308 15.8804 16.5308 15.3528 16.2054 15.0275L13.1313 11.9533C14.0429 10.788 14.5384 9.35115 14.5388 7.87162C14.5388 4.19579 11.5479 1.20496 7.87211 1.20496C4.19628 1.20496 1.20544 4.19579 1.20544 7.87162C1.20544 11.5475 4.19628 14.5383 7.87211 14.5383ZM7.87211 2.87162C10.6296 2.87162 12.8721 5.11412 12.8721 7.87162C12.8721 10.6291 10.6296 12.8716 7.87211 12.8716C5.11461 12.8716 2.87211 10.6291 2.87211 7.87162C2.87211 5.11412 5.11461 2.87162 7.87211 2.87162Z" fill="#B1B8C0"/>
</svg>
